<?xml version="1.0" standalone="no"?>
<!DOCTYPE svg PUBLIC "-//W3C//DTD SVG 20010904//EN"
 "http://www.w3.org/TR/2001/REC-SVG-20010904/DTD/svg10.dtd">
<svg version="1.0" xmlns="http://www.w3.org/2000/svg"
 width="16.000000pt" height="16.000000pt" viewBox="0 0 16.000000 16.000000"
 preserveAspectRatio="xMidYMid meet">
<metadata>
Created by potrace 1.11, written by Peter Selinger 2001-2013
</metadata>
<g transform="translate(0.000000,16.000000) scale(0.010667,-0.010667)"
fill="#000000" stroke="none">
<path d="M716 1182 c-4 -7 2 -471 9 -607 1 -38 3 -100 4 -136 1 -43 6 -72 17
-85 14 -17 15 -12 9 71 -7 107 -8 463 -1 555 2 36 8 98 12 138 l7 72 -26 0
c-14 0 -28 -3 -31 -8z"/>
<path d="M392 1159 c-33 -30 -65 -105 -59 -136 5 -28 -38 -153 -53 -153 -10 0
-20 26 -27 65 -11 68 -45 181 -59 195 -13 13 -17 12 -35 -10 -27 -34 -80 -159
-94 -220 -2 -8 -6 -26 -9 -40 -3 -14 -8 -36 -10 -50 -3 -14 -11 -40 -18 -58
-9 -24 -10 -37 -2 -50 13 -20 71 -29 87 -13 6 6 11 50 12 98 2 48 10 121 19
162 26 122 44 121 76 -4 38 -148 66 -161 104 -47 53 157 90 179 93 54 2 -92
12 -182 23 -212 12 -35 42 -169 45 -206 3 -41 14 -74 25 -74 4 0 6 17 4 38
-13 132 -15 191 -18 400 -3 213 -5 236 -22 252 -31 29 -58 32 -82 9z"/>
<path d="M1297 1152 c-32 -35 -59 -101 -53 -128 5 -20 -2 -49 -34 -129 l-12
-30 -19 24 c-10 12 -16 27 -13 32 6 10 -43 199 -55 212 -29 29 -89 -79 -136
-243 -8 -28 -19 -87 -17 -94 2 -4 -2 -13 -7 -20 -16 -19 -21 -69 -9 -83 14
-17 87 -17 89 0 1 6 3 41 4 77 4 128 33 270 55 270 15 0 29 -33 46 -106 19
-82 50 -133 69 -112 7 7 25 50 40 95 29 92 53 128 73 115 12 -8 13 -28 11
-122 -1 -44 12 -130 34 -215 9 -33 19 -73 22 -90 7 -35 25 -139 25 -143 0 -2
5 0 11 3 9 6 5 100 -7 160 -3 11 -4 72 -3 135 0 63 1 122 1 130 -6 197 -13
270 -26 270 0 0 -15 4 -33 9 -27 8 -34 6 -56 -17z"/>
</g>
</svg>
